# xmcd CD database file
#
# Track frame offsets:
#	150
#	23016
#	47777
#	67480
#	89116
#	92785
#	114108
#	136361
#	155227
#	182968
#	205721
#	229078
#	231770
#	250361
#	280331
#
# Disc length: 3968 seconds
#
# Revision: 6
# Processed by: cddbd v1.4PL0 Copyright (c) Steve Scherf et al.
# Submitted via: CDex 1.50beta9
#
DISCID=de0f7e0f
DTITLE=PUR - Maechtig viel Theater
DYEAR=1998
DGENRE=Deutsch-Rock
TTITLE0=Wenn Du da bist
TTITLE1=Treib mich weiter
TTITLE2=Mach es nochmal
TTITLE3=Kinder sind tabu
TTITLE4=Merlin's Pummelflug
TTITLE5=Koenigin
TTITLE6=Allein vor dem Spiegel
TTITLE7=Endlich ich
TTITLE8=Gib sie her
TTITLE9=Kleiner Prinz
TTITLE10=Maechtig viel Theater
TTITLE11=Kowalski 6
TTITLE12=Der Dumme
TTITLE13=Ich will raus hier
TTITLE14=Geweint vor Glück
EXTD=YEAR: 1998
EXTT0=
EXTT1=
EXTT2=
EXTT3=
EXTT4=
EXTT5=
EXTT6=
EXTT7=
EXTT8=
EXTT9=
EXTT10=
EXTT11=
EXTT12=
EXTT13=
EXTT14=
PLAYORDER=
